<svg xmlns="http://www.w3.org/2000/svg" viewBox="0 0 512 512" width="100%" height="100%">
  <defs>
    <linearGradient id="cyberGradientMaskable" x1="0%" y1="0%" x2="100%" y2="100%">
      <stop offset="0%" stop-color="#0f172a" />
      <stop offset="50%" stop-color="#020617" />
      <stop offset="100%" stop-color="#090d16" />
    </linearGradient>
    <linearGradient id="ringGradientMaskable" x1="0%" y1="0%" x2="100%" y2="100%">
      <stop offset="0%" stop-color="#2563eb" />
      <stop offset="50%" stop-color="#4f46e5" />
      <stop offset="100%" stop-color="#06b6d4" />
    </linearGradient>
  </defs>
  
  <!-- Outer backing canvas -->
  <rect width="512" height="512" fill="url(#cyberGradientMaskable)" />
  
  <!-- Concentrated main squircle element positioned within exact safe boundary -->
  <g transform="translate(116, 116)">
    <rect width="280" height="280" rx="80" fill="#ffffff" />
    <circle cx="140" cy="140" r="85" fill="none" stroke="#09090b" stroke-width="18" />
    <circle cx="140" cy="140" r="60" fill="none" stroke="url(#ringGradientMaskable)" stroke-width="18" />
    <circle cx="140" cy="140" r="35" fill="none" stroke="#09090b" stroke-width="18" />
    <circle cx="140" cy="140" r="14" fill="#09090b" />
  </g>
  
  <!-- Star accents -->
  <path d="M 430 80 L 434 88 L 442 92 L 434 96 L 430 104 L 426 96 L 418 92 L 426 88 Z" fill="#06b6d4" />
  <path d="M 82 430 L 85 436 L 91 439 L 85 442 L 82 448 L 79 442 L 73 439 L 79 436 Z" fill="#4f46e5" />
</svg>
